<svg version="1.0" xmlns="http://www.w3.org/2000/svg"
 width="184.000000pt" height="105.000000pt" viewBox="0 0 184.000000 105.000000"
 preserveAspectRatio="xMidYMid meet">

<g transform="translate(0.000000,105.000000) scale(0.100000,-0.100000)"
fill="#279CDB">

<path d="M1237 938 c-28 -22 -32 -63 -8 -87 41 -41 101 -18 101 38 0 49 -54
78 -93 49z"/>
<path d="M1437 932 c-22 -24 -21 -65 1 -85 58 -53 137 28 82 83 -25 25 -62 26
-83 2z"/>
<path d="M1637 932 c-36 -39 -11 -102 39 -102 29 0 64 33 64 60 0 27 -35 60
-63 60 -13 0 -31 -8 -40 -18z"/>
<path d="M1556 761 c-41 -45 -15 -104 43 -99 28 2 39 9 50 32 12 25 11 31 -6
55 -25 33 -63 38 -87 12z"/>
<path d="M1440 600 c-18 -33 -8 -73 22 -89 25 -14 29 -14 55 5 34 26 40 48 19
79 -22 33 -80 35 -96 5z"/>
<path d="M120 371 l0 -171 50 0 50 0 0 84 c0 45 5 97 10 113 11 31 45 53 80
53 17 0 20 7 20 45 0 44 -1 45 -31 45 -20 0 -40 -10 -59 -29 l-29 -28 -3 26
c-3 23 -8 26 -45 29 l-43 3 0 -170z"/>
<path d="M464 526 c-62 -27 -100 -104 -92 -188 11 -113 105 -166 253 -144 39
6 45 10 45 31 0 47 -6 50 -83 47 -62 -3 -75 0 -94 18 -13 11 -23 25 -23 30 0
6 46 10 110 10 l110 0 0 50 c0 63 -30 124 -70 145 -36 18 -114 19 -156 1z
m123 -85 c6 -14 10 -29 7 -33 -3 -4 -32 -8 -65 -8 -64 0 -71 8 -43 48 22 32
83 28 101 -7z"/>
<path d="M830 518 c-47 -33 -70 -81 -70 -151 0 -112 57 -174 151 -165 28 3 58
13 71 24 l21 19 -7 -35 c-10 -53 -41 -80 -92 -80 -24 0 -55 5 -70 10 -32 13
-31 14 -39 -31 -6 -34 -5 -37 26 -48 39 -14 122 -14 170 -1 45 13 84 54 98
105 6 22 11 115 11 208 l0 167 -41 0 c-32 0 -42 -4 -46 -20 -5 -20 -5 -20 -30
0 -36 28 -110 27 -153 -2z m156 -95 c22 -51 11 -118 -22 -139 -53 -35 -113 26
-101 102 8 50 33 74 74 74 30 0 36 -5 49 -37z"/>
<path d="M1347 452 c-21 -23 -22 -66 -1 -86 23 -24 70 -20 88 6 21 30 20 54
-4 78 -25 25 -62 26 -83 2z"/>
<path d="M1246 294 c-22 -21 -20 -60 4 -84 25 -25 55 -25 80 0 40 40 16 100
-40 100 -16 0 -36 -7 -44 -16z"/>
</g>
</svg>
