<svg version="1.1" id="Layer_1" xmlns="http://www.w3.org/2000/svg" xmlns:xlink="http://www.w3.org/1999/xlink" x="0px" y="0px"
     width="100%" viewBox="0 0 1341 670" enable-background="new 0 0 1341 670" xml:space="preserve" style="overflow: visible">
    <path class-on-hover="slide-fwd-left" fill="#032C42" opacity="1.000000" stroke="none"
          d="
M3.468657,671.000000
	C3.075021,660.191528 2.745621,649.362427 3.297146,638.578308
	C5.359035,598.261475 10.717803,558.376282 20.003622,519.063171
	C43.816685,418.246552 88.630219,327.744781 154.074692,247.517548
	C166.581924,232.185165 180.203766,217.762009 193.592560,202.600937
	C195.452072,204.343338 196.774414,205.513397 198.020264,206.759872
	C227.469406,236.224442 256.876709,265.730927 286.368225,295.152924
	C299.329559,308.083710 319.225464,305.242706 326.213867,289.251740
	C327.915894,285.357147 328.639648,280.447357 328.067719,276.241760
	C324.285828,248.433060 341.827148,222.416138 368.447754,217.049408
	C396.112823,211.472107 422.346375,227.826553 429.377838,255.034271
	C438.644226,290.889832 408.113495,324.198517 370.944000,318.785004
	C361.380646,317.392151 352.021179,321.772522 347.097534,329.945435
	C342.112427,338.220367 342.588470,349.094147 348.391785,356.717072
	C349.898163,358.695740 351.646027,360.507874 353.406738,362.273010
	C383.650299,392.592651 413.907501,422.898682 444.192383,453.177002
	C445.479431,454.463806 447.063110,455.453918 448.638062,456.683289
	C392.298309,517.319946 363.018677,587.995239 361.988831,670.532043
	C242.645767,671.000000 123.291542,671.000000 3.468657,671.000000
z"/>
    <path class-on-hover="slide-fwd-tl" fill="#0C628F" opacity="1.000000" stroke="none"
          d="
M756.487915,231.779984
	C736.014709,233.130692 720.033264,225.822495 708.036316,209.624634
	C702.609924,202.298141 692.306580,199.253601 683.347107,201.809235
	C673.822205,204.526169 666.946838,212.267853 665.953735,221.563843
	C665.671387,224.207077 665.631531,226.885666 665.630371,229.548111
	C665.611450,271.876343 665.617065,314.204559 665.617065,356.532776
	C665.617065,358.508514 665.617065,360.484253 665.617065,362.967621
	C583.172729,365.629150 512.574707,395.606812 453.307861,452.937408
	C452.358551,452.134277 451.319702,451.375916 450.420868,450.477509
	C419.658539,419.728973 388.938995,388.937531 358.132690,358.233185
	C352.256378,352.376312 348.196045,346.133026 351.002411,337.391785
	C353.774536,328.757141 362.479828,323.507324 371.364594,325.172302
	C399.424438,330.430603 429.624542,310.163574 435.884705,281.873444
	C444.616058,242.415680 414.689514,207.439774 374.420929,210.039185
	C345.016052,211.937317 321.202606,238.211014 321.702301,268.244049
	C321.749359,271.071838 321.838867,273.919159 322.209717,276.717529
	C323.251343,284.576874 319.954620,291.422760 313.162781,295.115601
	C306.433350,298.774506 298.715057,297.905090 292.832062,292.586151
	C289.375732,289.461212 286.143127,286.086517 282.845276,282.788788
	C256.331512,256.275970 229.835114,229.745743 203.290878,203.263474
	C202.006790,201.982376 200.324768,201.100128 198.248154,199.618362
	C257.098755,141.153610 323.048950,95.465462 397.453735,62.047970
	C482.552307,23.827555 571.780029,4.538215 665.617065,3.639972
	C665.617065,6.267823 665.617065,8.232112 665.617065,10.196401
	C665.617126,51.191444 665.587158,92.186523 665.632996,133.181519
	C665.649719,148.117126 673.254272,157.678650 686.849609,159.458008
	C695.995361,160.654999 703.344421,157.129349 709.026733,149.780533
	C724.890259,129.264771 750.760742,122.899109 773.326904,133.820023
	C793.765259,143.711166 805.211426,165.599411 801.865051,188.392670
	C798.694763,209.985947 781.265015,227.545807 759.377686,231.205978
	C758.557800,231.343079 757.749207,231.547607 756.487915,231.779984
z"/>
    <path class-on-hover="slide-fwd-tr" fill="#032C42" opacity="1.000000" stroke="none"
          d="
M671.854614,14.019976
	C671.854614,10.399413 671.854614,7.275065 671.854614,3.258043
	C853.568787,5.915111 1009.158936,70.143967 1141.460571,196.207642
	C1139.356201,197.559387 1137.573364,198.311264 1136.303833,199.577728
	C1106.928589,228.882645 1077.586548,258.220825 1048.291382,287.605865
	C1037.668457,298.261536 1036.756592,312.224060 1045.944458,322.471283
	C1052.197388,329.445251 1060.179199,331.023621 1069.145996,329.846802
	C1085.193115,327.740753 1099.078613,332.675323 1110.854370,343.543854
	C1128.048584,359.413147 1132.105225,386.070618 1120.585815,406.316772
	C1108.517090,427.528381 1084.440796,437.523956 1061.172119,430.983185
	C1038.476440,424.603485 1022.900452,403.258881 1023.735840,379.693665
	C1023.905884,374.897858 1024.791504,369.986023 1024.070435,365.325195
	C1021.374207,347.897217 1000.998718,339.636627 986.667603,349.939301
	C984.517883,351.484741 982.566284,353.344238 980.688171,355.223511
	C950.414856,385.515472 920.162048,415.827972 889.937805,446.168915
	C888.654419,447.457245 887.692627,449.066071 886.394958,450.769775
	C825.710693,394.014893 754.714294,365.045502 672.204468,363.692780
	C672.082092,362.153107 671.869690,360.723999 671.869141,359.294800
	C671.852478,314.968750 671.829102,270.642670 671.877441,226.316650
	C671.888855,215.815079 677.491577,209.072922 687.447571,207.603439
	C694.073059,206.625549 699.618408,209.013809 703.666138,214.304031
	C718.520996,233.718826 738.189087,241.936325 762.006409,237.210571
	C786.299988,232.390289 801.435425,216.853470 807.296570,192.734497
	C815.997070,156.931442 786.234985,121.138306 749.375854,122.668549
	C730.341675,123.458771 715.248779,131.393265 703.826477,146.553085
	C699.070496,152.865311 691.242493,155.234375 683.777039,152.757889
	C676.719604,150.416763 671.928406,143.927856 671.913330,135.995239
	C671.836365,95.502335 671.863770,55.009228 671.854614,14.019976
z"/>
    <path style="zoom:1.5" class-on-hover="slide-fwd-right" fill="#279CDB" opacity="1.000000" stroke="none"
          d="
M980.468628,671.000000
	C979.398987,586.847778 948.677124,515.088135 890.657043,454.314148
	C891.536438,453.282959 892.317688,452.229797 893.234314,451.311768
	C924.320068,420.176331 955.399109,389.034088 986.529297,357.943024
	C994.286865,350.195221 1003.149109,349.243103 1011.255920,355.072357
	C1017.386353,359.480438 1018.784302,365.690796 1017.923645,372.764618
	C1013.468872,409.379578 1041.167847,439.971588 1077.836548,438.950562
	C1107.687012,438.119385 1132.026489,412.784729 1133.170776,382.634003
	C1134.377930,350.827942 1107.653198,319.957581 1069.313721,323.029297
	C1066.843262,323.227264 1064.328369,324.091675 1061.935425,323.803772
	C1055.207397,322.994415 1049.959351,319.593536 1047.292236,313.208466
	C1044.585083,306.727356 1045.467896,300.486420 1049.829468,294.890442
	C1050.950806,293.451935 1052.289917,292.176178 1053.584473,290.880951
	C1082.682861,261.764862 1111.788208,232.655533 1140.897461,203.550247
	C1142.054321,202.393539 1143.263184,201.288788 1145.425659,199.227966
	C1162.585571,219.083893 1180.037964,238.335587 1196.431030,258.450653
	C1226.968140,295.921143 1252.293945,336.843597 1273.405151,380.272278
	C1301.211426,437.473938 1320.722412,497.411896 1331.126465,560.257446
	C1337.148438,596.633118 1340.528687,633.197998 1340.109985,670.541626
	C1220.312500,671.000000 1100.624878,671.000000 980.468628,671.000000
z"/>
</svg>
