<svg xmlns="http://www.w3.org/2000/svg" viewBox="0 0 1440 320" style="display: block">
    <path fill="#ffffff" fill-opacity="1" d="M0,288L30,266.7C60,245,120,203,180,181.3C240,160,300,160,360,181.3C420,203,480,245,540,250.7C600,256,660,224,720,197.3C780,171,840,149,900,144C960,139,1020,149,1080,165.3C1140,181,1200,203,1260,176C1320,149,1380,75,1410,37.3L1440,0L1440,320L1410,320C1380,320,1320,320,1260,320C1200,320,1140,320,1080,320C1020,320,960,320,900,320C840,320,780,320,720,320C660,320,600,320,540,320C480,320,420,320,360,320C300,320,240,320,180,320C120,320,60,320,30,320L0,320Z"></path>
</svg>
