<svg width="1906" height="960" xmlns="http://www.w3.org/2000/svg" xmlns:xlink="http://www.w3.org/1999/xlink" xml:space="preserve" overflow="hidden" class="puzzle-circle">
    <defs>
        <clipPath id="clip0">
            <rect x="1251" y="1096" width="1906" height="960"/>
        </clipPath>
    </defs>
    <g id="gPathParent" clip-path="url(#clip0)" transform="translate(-1251 -1096)">
        <path svg-path="#032C42" id="path4" class="path" d="M3152.5 2046.6 3152.5 2050.5 2635.76 2050.5C2635.83 2049.22 2635.83 2047.88 2635.83 2046.6 2635.83 1926.09 2586.34 1817.22 2506.5 1738.92L2648.06 1597.71C2659.72 1586.64 2678.27 1586.85 2689.72 1598.27 2695.76 1604.3 2698.61 1612.25 2698.39 1620.19 2697.83 1622.67 2697.47 1625.15 2697.26 1627.64 2697.26 1627.71 2697.19 1627.71 2697.19 1627.71 2694.91 1650.05 2702.31 1673.17 2719.44 1690.26 2749.66 1720.41 2798.64 1720.41 2828.86 1690.26 2859.08 1660.12 2859.08 1611.25 2828.86 1581.11 2811.73 1564.02 2788.55 1556.57 2766.22 1558.84 2766.15 1558.91 2766.15 1558.91 2766.08 1558.91 2763.52 1559.12 2760.96 1559.55 2758.47 1560.04 2750.58 1560.33 2742.69 1557.42 2736.65 1551.39 2724.99 1539.76 2724.99 1520.96 2736.65 1509.33L2871.8 1374.5C3045.14 1546 3152.5 1783.82 3152.5 2046.6Z" stroke="#FFFFFF" stroke-opacity="1.0" stroke-width="5" stroke-miterlimit="8" fill="#032C42" fill-rule="evenodd"/>
        <path svg-path="#0C628F" id="path3" class="path" d="M2828.63 1582.67C2858.79 1612.81 2858.79 1661.69 2828.63 1691.84 2798.46 1721.99 2749.55 1721.99 2719.38 1691.84 2702.28 1674.74 2694.9 1651.62 2697.17 1629.27 2697.17 1629.27 2697.24 1629.27 2697.24 1629.2 2697.45 1626.72 2697.8 1624.23 2698.37 1621.75 2698.59 1613.81 2695.75 1605.86 2689.71 1599.83 2678.28 1588.41 2659.76 1588.2 2648.12 1599.26 2647.9 1599.41 2647.76 1599.55 2647.55 1599.76L2506.79 1740.5C2481.38 1715.6 2452.91 1693.75 2421.97 1675.73 2358.15 1638.35 2283.76 1617 2204.48 1617 2203.13 1617 2201.85 1617 2200.5 1617.07L2200.5 1418.02C2200.5 1401.63 2213.84 1388.3 2230.31 1388.3 2238.83 1388.3 2246.5 1391.85 2251.96 1397.66 2253.31 1399.79 2254.8 1401.78 2256.36 1403.69 2256.43 1403.76 2256.43 1403.83 2256.43 1403.83 2270.63 1421.21 2292.21 1432.35 2316.41 1432.35 2359.15 1432.35 2393.71 1397.73 2393.71 1355.1 2393.71 1312.47 2359.15 1277.92 2316.41 1277.92 2292.21 1277.92 2270.63 1289.06 2256.43 1306.44 2256.43 1306.51 2256.43 1306.51 2256.36 1306.58 2254.73 1308.49 2253.24 1310.62 2251.82 1312.75 2246.43 1318.43 2238.83 1321.97 2230.31 1321.97 2213.84 1321.97 2200.5 1308.71 2200.5 1292.25L2200.5 1101.5 2204.48 1101.5C2377.74 1101.5 2540.15 1148.03 2679.85 1229.19 2749.98 1269.9 2814.36 1319.35 2871.5 1376.03L2736.56 1510.88C2724.92 1522.51 2724.92 1541.31 2736.56 1552.94 2742.6 1558.97 2750.47 1561.88 2758.35 1561.6 2760.84 1561.1 2763.39 1560.67 2765.95 1560.46 2766.02 1560.46 2766.02 1560.46 2766.09 1560.39 2788.38 1558.12 2811.52 1565.57 2828.63 1582.67Z" stroke="#FFFFFF" stroke-opacity="1" stroke-width="5" stroke-miterlimit="8" fill="#0C628F" fill-rule="evenodd"/>
        <path svg-path="#279CDB" id="path2" class="path" d="M2395.5 1355.26C2395.5 1397.92 2360.89 1432.55 2318.1 1432.55 2293.86 1432.55 2272.25 1421.41 2258.04 1404.02 2258.04 1404.02 2258.04 1403.95 2257.97 1403.88 2256.4 1401.96 2254.91 1399.97 2253.56 1397.84 2248.09 1392.02 2240.41 1388.47 2231.88 1388.47 2215.4 1388.47 2202.03 1401.82 2202.03 1418.22L2202.03 1617.39C2124.13 1618.03 2051.07 1639.32 1988.24 1676.09 1954.9 1695.47 1924.48 1719.24 1897.76 1746.5L1756.74 1605.68C1745.09 1594.11 1745.09 1575.22 1756.74 1563.58 1762.79 1557.55 1770.82 1554.64 1778.71 1554.85 1781.19 1555.49 1783.68 1555.85 1786.17 1556.06 1786.24 1556.06 1786.31 1556.13 1786.31 1556.13 1788.8 1556.42 1791.36 1556.49 1793.85 1556.49 1795.55 1556.49 1797.19 1556.49 1798.82 1556.34 1800.88 1556.27 1802.87 1556.06 1804.93 1555.78 1806.35 1555.56 1807.7 1555.35 1809.13 1555.07 1818.86 1553.22 1828.25 1549.46 1836.85 1543.78 1838.48 1542.71 1840.12 1541.51 1841.75 1540.3 1844.24 1538.31 1846.65 1536.19 1848.93 1533.91 1850.85 1532 1852.62 1530.08 1854.26 1528.02 1856.39 1525.4 1858.38 1522.63 1860.09 1519.79 1867.76 1507.44 1871.6 1493.31 1871.6 1479.26 1871.6 1477.48 1871.53 1475.85 1871.39 1474.15L1871.39 1474.08C1871.39 1474.01 1871.39 1474.01 1871.39 1474.01L1871.39 1473.93C1870.18 1455.91 1862.72 1438.37 1848.93 1424.6 1845.3 1420.98 1841.39 1417.79 1837.34 1415.09 1807.28 1394.86 1766.2 1398.06 1739.54 1424.67 1722.41 1441.71 1715.02 1464.85 1717.3 1487.14 1717.3 1487.21 1717.3 1487.21 1717.3 1487.28 1717.58 1489.83 1717.94 1492.39 1718.51 1494.95 1718.72 1502.75 1715.8 1510.63 1709.76 1516.67 1698.39 1528.02 1680.05 1528.38 1668.4 1517.45L1532.5 1381.73C1591.14 1322.68 1657.52 1271.36 1729.95 1229.26 1868.76 1148.63 2029.96 1102.21 2202.03 1101.5L2202.03 1292.37C2202.03 1308.83 2215.4 1322.11 2231.88 1322.11 2240.41 1322.11 2248.02 1318.56 2253.42 1312.88 2254.84 1310.75 2256.33 1308.62 2257.97 1306.7 2258.04 1306.63 2258.04 1306.63 2258.04 1306.56 2272.25 1289.17 2293.86 1278.03 2318.1 1278.03 2360.89 1278.03 2395.5 1312.6 2395.5 1355.26Z" stroke="#FFFFFF" stroke-opacity="1" stroke-width="5" stroke-miterlimit="8" fill="#279CDB" fill-rule="evenodd"/>
        <path svg-path="#032C42" id="path1" class="path" d="M1770.93 2047.6C1770.93 2048.87 1770.93 2050.22 1771 2051.5L1255.5 2051.5 1255.5 2047.6C1255.5 1787.37 1360.27 1551.71 1529.96 1380.5L1665.59 1516.22C1677.22 1527.15 1695.52 1526.8 1706.87 1515.44 1712.9 1509.4 1715.81 1501.53 1715.6 1493.72 1715.03 1491.16 1714.67 1488.61 1714.39 1486.05 1714.39 1485.98 1714.39 1485.98 1714.39 1485.91 1712.12 1463.62 1719.5 1440.48 1736.59 1423.44 1763.2 1396.83 1804.2 1393.63 1834.2 1413.86 1838.25 1416.56 1842.15 1419.75 1845.77 1423.37 1859.53 1437.14 1866.98 1454.68 1868.18 1472.71L1868.18 1472.78C1868.18 1472.78 1868.18 1472.78 1868.18 1472.85L1868.18 1472.92C1868.32 1474.62 1868.4 1476.26 1868.4 1478.03 1868.4 1492.09 1864.56 1506.21 1856.9 1518.56 1855.2 1521.4 1853.21 1524.17 1851.09 1526.8 1849.45 1528.85 1847.68 1530.77 1845.77 1532.69 1843.5 1534.96 1841.08 1537.09 1838.6 1539.08 1836.97 1540.28 1835.34 1541.49 1833.71 1542.55 1825.12 1548.23 1815.76 1551.99 1806.04 1553.84 1804.62 1554.12 1803.28 1554.34 1801.86 1554.55 1799.8 1554.83 1797.81 1555.05 1795.76 1555.12 1794.12 1555.26 1792.49 1555.26 1790.79 1555.26 1788.24 1555.26 1785.75 1555.12 1783.27 1554.83 1783.27 1554.83 1783.2 1554.83 1783.13 1554.83 1780.65 1554.62 1778.16 1554.27 1775.68 1553.63 1767.81 1553.41 1759.79 1556.32 1753.76 1562.36 1742.13 1574 1742.13 1592.88 1753.76 1604.45L1894.5 1745.28C1818.1 1823.15 1770.93 1929.84 1770.93 2047.6Z" stroke="#FFFFFF" stroke-width="5" stroke-opacity="1" stroke-miterlimit="8" fill="#032C42" fill-rule="evenodd"/>
    </g>
</svg>
